<svg xmlns="http://www.w3.org/2000/svg" version="1.1" xmlns:xlink="http://www.w3.org/1999/xlink" xmlns:svgjs="http://svgjs.dev/svgjs" width="2000" height="1999" viewBox="0 0 2000 1999"><g transform="matrix(1,0,0,1,-0.431486880466764,-0.4312711370263287)"><svg viewBox="0 0 343 343" data-background-color="#ffffff" preserveAspectRatio="xMidYMid meet" height="1999" width="2000" xmlns="http://www.w3.org/2000/svg" xmlns:xlink="http://www.w3.org/1999/xlink"><g id="tight-bounds" transform="matrix(1,0,0,1,0.0740000000000407,0.07400000000001228)"><svg viewBox="0 0 342.85155851775386 342.85155851775386" height="342.85155851775386" width="342.85155851775386"><g><svg></svg></g><g><svg viewBox="0 0 342.85155851775386 342.85155851775386" height="342.85155851775386" width="342.85155851775386"><g><path d="M0 171.426c0-94.676 76.75-171.426 171.426-171.426 94.676 0 171.426 76.75 171.426 171.426 0 94.676-76.75 171.426-171.426 171.426-94.676 0-171.426-76.75-171.426-171.426zM171.426 336.853c91.363 0 165.427-74.064 165.427-165.427 0-91.363-74.064-165.427-165.427-165.427-91.363 0-165.427 74.064-165.427 165.427 0 91.363 74.064 165.427 165.427 165.427z" data-fill-palette-color="tertiary" fill="#31302e" stroke="transparent"></path><ellipse rx="164.56874808852186" ry="164.56874808852186" cx="171.42577925887693" cy="171.42577925887693" fill="#31302e" stroke="transparent" stroke-width="0" fill-opacity="1" data-fill-palette-color="tertiary"></ellipse></g><g transform="matrix(1,0,0,1,64.84655864529837,138.16701537946233)"><svg viewBox="0 0 213.1584412271571 66.51752775882917" height="66.51752775882917" width="213.1584412271571"><g><svg viewBox="0 0 213.1584412271571 66.51752775882917" height="66.51752775882917" width="213.1584412271571"><g><svg viewBox="0 0 213.1584412271571 66.51752775882917" height="66.51752775882917" width="213.1584412271571"><g><svg viewBox="0 0 213.1584412271571 66.51752775882917" height="66.51752775882917" width="213.1584412271571"><g id="textblocktransform"><svg viewBox="0 0 213.1584412271571 66.51752775882917" height="66.51752775882917" width="213.1584412271571" id="textblock"><g><svg viewBox="0 0 213.1584412271571 66.51752775882917" height="66.51752775882917" width="213.1584412271571"><g transform="matrix(1,0,0,1,0,0)"><svg width="213.1584412271571" viewBox="0.49 -39.31 144.57 45.12" height="66.51752775882917" data-palette-color="#ffffff"><path d="M32.57-8.94L32.57-8.94Q32.57-6.05 31.05-4.08 29.54-2.1 27.25-0.88 24.95 0.34 22.27 0.9 19.58 1.46 17.24 1.46L17.24 1.46Q14.31 1.46 11.35 0.56 8.4-0.34 6.01-2.05L6.01-2.05 2.15 5.81 3.91-12.4Q4.54-10.21 5.79-8.42 7.03-6.64 8.69-5.37 10.35-4.1 12.38-3.42 14.4-2.73 16.7-2.73L16.7-2.73Q17.53-2.73 18.68-2.91 19.82-3.08 20.87-3.52 21.92-3.96 22.66-4.69 23.39-5.42 23.39-6.49L23.39-6.49Q23.39-7.86 22.29-8.89 21.19-9.91 19.68-10.62 18.16-11.33 16.55-11.77 14.94-12.21 13.96-12.4L13.96-12.4Q11.96-12.79 9.62-13.48 7.28-14.16 5.25-15.31 3.22-16.46 1.86-18.19 0.49-19.92 0.49-22.46L0.49-22.46Q0.49-25.39 1.86-27.37 3.22-29.35 5.35-30.52 7.47-31.69 10.03-32.18 12.6-32.67 15.04-32.67L15.04-32.67Q18.55-32.67 21.34-31.84 24.12-31.01 27.2-29.3L27.2-29.3 32.08-35.25 30.27-19.19Q29.05-21.14 27.42-22.85 25.78-24.56 23.83-25.85 21.88-27.15 19.65-27.91 17.43-28.66 15.09-28.66L15.09-28.66Q14.26-28.66 13.16-28.44 12.06-28.22 11.04-27.76 10.01-27.29 9.3-26.56 8.59-25.83 8.59-24.76L8.59-24.76Q8.59-23.73 9.45-23.02 10.3-22.31 11.5-21.85 12.7-21.39 13.92-21.09 15.14-20.8 15.87-20.65L15.87-20.65Q18.07-20.17 20.95-19.34 23.83-18.51 26.42-17.14 29-15.77 30.79-13.77 32.57-11.77 32.57-8.94ZM72.51-15.23L72.51-15.23Q72.51-11.23 70.75-8.28 68.99-5.32 66.21-3.34 63.43-1.37 59.91-0.39 56.39 0.59 52.88 0.59L52.88 0.59Q49.36 0.59 45.97-0.44 42.58-1.46 39.91-3.44 37.25-5.42 35.64-8.37 34.03-11.33 34.03-15.23L34.03-15.23Q34.03-19.53 35.74-22.51 37.45-25.49 40.28-27.32 43.11-29.15 46.73-29.98 50.34-30.81 54.1-30.81L54.1-30.81Q57.61-30.81 60.91-29.81 64.21-28.81 66.79-26.86 69.38-24.9 70.94-21.97 72.51-19.04 72.51-15.23ZM63.18-15.33L63.18-15.33Q63.18-17.33 62.57-19.26 61.96-21.19 60.81-22.68 59.67-24.17 57.98-25.07 56.3-25.98 54.1-25.98L54.1-25.98Q51.8-25.98 49.83-25.2 47.85-24.41 46.38-23.02 44.92-21.63 44.09-19.7 43.26-17.77 43.26-15.53L43.26-15.53Q43.26-13.43 43.82-11.4 44.38-9.38 45.53-7.76 46.68-6.15 48.44-5.18 50.19-4.2 52.59-4.2L52.59-4.2Q55.22-4.2 57.22-5 59.23-5.81 60.54-7.28 61.86-8.74 62.52-10.79 63.18-12.84 63.18-15.33ZM104.68-22.61L104.68-2 66.94-0.34 78.56-5.96 77.05-34.62 64.99-39.21 97.75-39.31 86.66-34.57 86.18-6.05 98.09-5.66 104.68-22.61ZM145.06-15.23L145.06-15.23Q145.06-11.23 143.3-8.28 141.55-5.32 138.76-3.34 135.98-1.37 132.46-0.39 128.95 0.59 125.43 0.59L125.43 0.59Q121.92 0.59 118.52-0.44 115.13-1.46 112.47-3.44 109.81-5.42 108.2-8.37 106.58-11.33 106.58-15.23L106.58-15.23Q106.58-19.53 108.29-22.51 110-25.49 112.83-27.32 115.67-29.15 119.28-29.98 122.89-30.81 126.65-30.81L126.65-30.81Q130.17-30.81 133.46-29.81 136.76-28.81 139.35-26.86 141.94-24.9 143.5-21.97 145.06-19.04 145.06-15.23ZM135.73-15.33L135.73-15.33Q135.73-17.33 135.12-19.26 134.51-21.19 133.37-22.68 132.22-24.17 130.53-25.07 128.85-25.98 126.65-25.98L126.65-25.98Q124.36-25.98 122.38-25.2 120.4-24.41 118.94-23.02 117.47-21.63 116.64-19.7 115.81-17.77 115.81-15.53L115.81-15.53Q115.81-13.43 116.37-11.4 116.94-9.38 118.08-7.76 119.23-6.15 120.99-5.18 122.75-4.2 125.14-4.2L125.14-4.2Q127.78-4.2 129.78-5 131.78-5.81 133.1-7.28 134.42-8.74 135.08-10.79 135.73-12.84 135.73-15.33Z" opacity="1" transform="matrix(1,0,0,1,0,0)" fill="#ffffff" class="wordmark-text-0" data-fill-palette-color="quaternary" id="text-0"></path></svg></g></svg></g></svg></g></svg></g><g></g></svg></g></svg></g></svg></g></svg></g><defs></defs></svg><rect width="342.85155851775386" height="342.85155851775386" fill="none" stroke="none" visibility="hidden"></rect></g></svg></g></svg>